<svg xmlns="http://www.w3.org/2000/svg" width="1024" height="1024" viewBox="0 0 1024 1024">
<g>
<path d="M 193.00 920.94 C185.90,922.54 173.25,922.07 166.00,919.94 C153.16,916.18 145.22,911.42 135.40,901.60 C127.99,894.19 125.52,890.92 122.15,884.00 C116.62,872.68 114.63,862.61 115.23,849.03 C115.75,837.13 118.52,827.64 124.07,818.74 C129.02,810.80 257.09,682.60 263.50,679.18 C268.03,676.75 269.52,676.50 279.28,676.48 L 290.06 676.47 L 304.97 661.46 L 319.88 646.45 L 310.80 632.47 C293.98,606.59 283.18,583.56 270.23,546.00 C267.48,538.03 262.24,524.11 258.59,515.07 C250.69,495.50 249.00,489.41 249.00,480.53 C249.00,471.42 252.32,461.97 262.17,443.02 L 270.22 427.55 L 269.11 415.87 C267.53,399.28 267.74,371.80 269.55,356.00 C276.27,297.54 302.38,244.28 346.45,199.16 C387.53,157.10 437.75,127.89 493.50,113.66 C524.87,105.65 547.19,103.02 584.06,103.01 C620.44,103.00 641.32,105.39 672.50,113.15 C715.98,123.98 757.57,144.57 791.50,172.07 C815.14,191.22 840.16,219.77 855.43,245.00 C886.86,296.94 899.50,360.11 890.47,420.20 L 889.01 429.91 L 897.34 446.26 C911.88,474.82 912.25,482.67 900.52,512.50 C897.92,519.10 892.90,532.73 889.36,542.79 C870.55,596.26 849.84,631.36 814.75,669.23 C771.78,715.62 714.39,749.45 651.50,765.47 C566.30,787.18 473.95,771.14 400.09,721.80 L 388.50 714.06 L 372.22 730.28 L 355.94 746.50 L 356.57 753.00 C357.34,760.91 355.37,769.35 351.37,775.35 C347.45,781.20 224.87,904.11 217.10,909.98 C210.67,914.83 201.37,919.06 193.00,920.94 ZM 554.50 689.38 C565.09,690.47 600.87,689.08 612.00,687.15 C657.36,679.28 689.73,665.70 727.40,638.70 C751.86,621.17 769.26,603.65 788.67,577.00 C806.08,553.10 823.95,514.19 830.54,485.83 C832.32,478.18 832.32,478.15 830.04,471.83 C824.12,455.40 807.24,426.57 793.55,409.50 C785.96,400.04 767.47,381.41 756.68,372.35 C721.42,342.76 674.31,321.28 624.50,312.10 C547.81,297.96 461.72,320.72 398.25,371.92 C386.31,381.55 365.53,402.68 357.30,413.56 C340.18,436.18 322.00,470.65 322.00,480.48 C322.00,488.75 333.37,521.17 343.57,542.02 C362.00,579.64 387.34,610.53 421.50,636.97 C459.65,666.51 504.71,684.27 554.50,689.38 ZM 607.12 631.08 C600.14,632.57 592.83,633.23 580.50,633.47 C561.68,633.85 560.77,633.78 546.50,630.95 C508.17,623.37 470.57,599.13 448.30,567.65 C435.61,549.72 425.18,525.02 421.33,503.79 C419.05,491.25 419.05,464.08 421.34,450.74 C424.62,431.57 433.65,409.64 446.15,390.50 C453.31,379.54 475.78,357.25 487.33,349.64 C506.50,337.01 528.17,328.01 548.42,324.26 C562.56,321.64 596.33,321.99 609.00,324.89 C641.37,332.29 666.05,345.87 689.04,368.93 C709.97,389.92 724.76,417.32 731.05,446.80 C734.05,460.83 734.75,485.07 732.59,499.72 C725.16,550.12 692.89,594.07 646.50,616.98 C631.11,624.58 621.67,627.96 607.12,631.08 ZM 836.75 376.75 C837.56,377.99 838.63,379.00 839.11,379.00 C840.25,379.00 840.23,377.03 838.95,365.21 C836.51,342.83 829.32,316.03 820.95,298.15 C799.36,252.05 760.19,213.10 710.45,188.24 C630.04,148.07 533.06,148.28 452.36,188.82 C382.98,223.68 334.84,283.03 321.64,350.00 C320.28,356.88 318.86,365.60 318.49,369.39 L 317.81 376.28 L 324.26 368.89 C327.81,364.83 335.13,357.45 340.52,352.50 C346.45,347.06 353.56,339.14 358.49,332.48 C388.33,292.17 421.46,264.93 465.00,244.92 C513.24,222.75 570.58,215.12 622.42,223.99 C690.09,235.55 750.83,272.54 791.08,326.68 C798.12,336.15 806.70,345.85 818.31,357.50 C827.64,366.85 835.94,375.51 836.75,376.75 ZM 556.50 603.40 C579.75,607.52 610.17,603.32 631.50,593.04 C642.99,587.50 657.41,577.75 665.40,570.11 C678.41,557.67 691.78,537.29 698.28,520.00 C703.67,505.65 705.39,495.67 705.41,478.50 C705.43,460.70 703.86,452.34 697.51,436.60 C687.89,412.74 681.00,403.07 681.00,413.43 C681.00,418.60 679.87,423.04 678.73,422.33 C678.05,421.91 677.93,423.35 678.36,426.60 C679.60,435.89 679.61,439.19 678.39,437.52 C676.99,435.61 676.00,435.57 676.00,437.44 C676.00,438.23 675.62,439.12 675.16,439.40 C674.69,439.69 674.92,437.59 675.66,434.74 C677.41,427.98 677.35,423.16 675.42,415.64 C672.63,404.77 663.98,394.19 654.18,389.66 C650.28,387.86 647.66,387.50 638.50,387.50 C628.43,387.50 627.06,387.73 622.29,390.25 C607.36,398.12 600.15,410.77 601.27,427.15 C602.45,444.33 613.47,457.11 630.96,461.58 C638.40,463.47 645.38,463.00 652.73,460.11 L 657.50 458.23 L 658.00 462.36 C659.18,472.11 658.46,490.55 656.63,497.50 C649.44,524.82 627.00,547.09 598.50,555.19 C592.05,557.02 587.99,557.46 577.50,557.46 C561.95,557.47 552.35,555.26 539.68,548.74 C535.18,546.43 530.94,544.53 530.26,544.51 C529.57,544.49 527.93,542.91 526.61,540.99 C525.29,539.07 522.47,536.45 520.35,535.17 C512.44,530.38 502.06,514.55 497.30,500.04 C494.71,492.13 494.50,490.36 494.55,476.00 C494.60,461.91 494.86,459.76 497.32,452.35 C502.31,437.32 508.23,426.06 515.00,418.71 C518.43,414.98 522.43,411.30 523.87,410.53 C525.32,409.76 527.78,407.92 529.35,406.43 C532.46,403.49 548.28,396.04 551.50,396.01 C554.34,395.98 566.20,392.54 565.58,391.92 C565.30,391.63 568.09,391.74 571.79,392.15 C575.48,392.56 581.42,392.92 585.00,392.95 C589.47,392.99 593.36,393.77 597.46,395.44 C600.73,396.77 603.77,397.64 604.21,397.37 C604.64,397.10 605.00,395.57 605.00,393.98 C605.00,391.01 607.23,389.00 610.52,389.00 C611.43,389.00 612.93,388.18 613.84,387.19 C615.76,385.08 622.54,382.60 623.95,383.47 C625.87,384.65 644.63,384.94 649.96,383.87 C653.96,383.06 655.52,383.07 655.80,383.89 C656.21,385.14 660.00,385.44 660.00,384.22 C660.00,383.78 657.64,381.13 654.75,378.31 C649.89,373.57 633.17,364.00 629.75,364.00 C629.04,364.00 626.88,362.93 624.95,361.61 C620.46,358.56 608.29,355.14 599.97,354.59 C596.41,354.36 592.23,353.68 590.68,353.08 C589.14,352.49 582.16,352.00 575.18,352.00 C562.49,352.00 552.01,353.53 543.69,356.59 C541.38,357.44 538.15,358.52 536.50,358.98 C524.69,362.32 512.23,368.41 510.80,371.54 C510.14,372.99 508.82,374.01 507.59,374.03 C505.04,374.07 502.72,375.76 501.13,378.75 C500.47,379.99 499.24,381.00 498.40,381.00 C495.15,381.00 481.36,393.62 476.55,401.00 C475.29,402.92 472.68,406.22 470.75,408.32 C462.74,417.02 454.38,434.74 449.91,452.51 C448.06,459.85 447.64,464.25 447.63,476.50 C447.62,495.21 449.40,504.78 455.99,521.57 C469.17,555.14 491.52,578.97 523.48,593.52 C532.58,597.67 544.86,601.34 556.50,603.40 ZM 553.50 749.38 C564.26,750.50 603.98,749.06 617.00,747.08 C675.97,738.10 731.04,711.68 774.77,671.37 C803.04,645.31 832.65,603.93 846.21,571.50 C850.67,560.84 872.99,500.49 873.00,499.07 C873.00,498.84 869.29,502.24 864.75,506.64 C860.21,511.04 853.99,516.52 850.92,518.81 C845.82,522.62 844.92,523.93 840.55,533.74 C792.00,642.91 686.66,714.18 574.00,714.10 C550.67,714.09 533.37,711.70 506.50,704.81 C471.23,695.76 432.43,676.16 402.00,652.03 C380.56,635.02 354.67,607.42 341.08,587.06 C328.81,568.69 315.32,543.34 309.46,527.65 C308.12,524.06 306.62,522.15 303.64,520.27 C301.42,518.87 295.14,513.41 289.66,508.12 C280.98,499.73 279.80,498.88 280.43,501.50 C280.83,503.15 281.74,505.85 282.47,507.50 C285.17,513.69 290.61,528.39 300.60,556.50 C308.60,579.02 315.94,593.96 329.36,615.00 C355.66,656.25 393.72,691.77 436.00,714.51 C448.05,720.99 470.78,730.96 481.91,734.63 C501.73,741.19 529.28,746.86 553.50,749.38 ZM 172.50 896.63 C179.56,898.50 188.86,897.61 196.30,894.36 C202.02,891.86 207.38,886.79 265.33,829.08 C300.39,794.15 329.00,764.86 330.08,762.79 C332.42,758.27 332.44,756.55 330.22,751.84 C328.25,747.65 285.88,703.51 281.80,701.40 C280.31,700.63 277.61,699.98 275.80,699.95 C272.74,699.91 267.93,704.51 210.69,762.20 C176.69,796.47 147.52,826.43 145.87,828.78 C139.27,838.18 136.47,852.66 139.08,863.96 C140.34,869.43 144.53,878.06 146.74,879.75 C147.65,880.44 147.98,881.00 147.49,881.00 C147.01,881.00 148.13,882.58 150.00,884.50 C151.87,886.42 153.98,888.00 154.70,888.00 C155.41,888.00 156.00,888.40 156.00,888.88 C156.00,890.12 166.49,895.05 172.50,896.63 ZM 420.00 303.00 C416.98,305.81 414.95,307.97 415.50,307.80 C416.05,307.62 422.35,304.50 429.50,300.86 C511.65,259.06 600.24,252.77 683.00,282.86 C701.85,289.71 706.11,291.54 724.22,300.53 C731.41,304.11 737.46,306.87 737.65,306.68 C738.47,305.86 721.25,292.47 708.38,283.92 C677.65,263.50 642.52,250.13 607.54,245.56 C592.05,243.54 563.09,243.53 547.46,245.54 C515.55,249.65 482.42,261.20 455.10,277.73 C442.01,285.65 427.14,296.36 420.00,303.00 ZM 322.53 710.95 C331.86,720.31 339.81,727.97 340.19,727.98 C340.86,728.00 362.35,706.92 366.73,701.95 L 368.96 699.42 L 351.81 682.13 L 334.67 664.84 L 320.11 679.39 L 305.56 693.94 ZM 666.97 397.95 C668.66,400.33 669.50,400.75 671.23,400.11 C674.66,398.84 674.41,397.41 670.03,393.03 C666.78,389.78 665.38,389.03 663.22,389.39 C661.72,389.63 660.11,389.87 659.63,389.92 C659.15,389.96 659.31,390.67 659.98,391.48 C660.92,392.61 661.68,392.71 663.19,391.90 C664.28,391.31 665.45,391.11 665.78,391.45 C666.83,392.49 666.87,395.00 665.84,395.00 C665.30,395.00 665.81,396.33 666.97,397.95 ZM 667.60 454.84 C667.20,455.48 665.62,456.00 664.07,456.00 L 661.26 456.00 L 665.38 451.70 C667.65,449.34 670.42,445.98 671.55,444.24 L 673.61 441.08 L 673.70 444.54 C673.79,447.60 673.15,448.43 670.90,448.17 C670.57,448.13 668.82,449.63 667.01,451.49 C664.05,454.55 663.95,454.83 666.02,454.29 C667.61,453.87 668.09,454.04 667.60,454.84 ZM 675.75 405.25 C676.31,408.46 677.60,408.84 678.49,406.05 C678.84,404.93 678.39,402.99 677.44,401.55 C675.55,398.66 673.39,398.07 674.53,400.75 C674.95,401.71 675.50,403.74 675.75,405.25 Z" fill="rgb(25,42,67)" data-index="0" style="opacity: 1;"></path>
<path d="M 510.13 524.83 C504.89,517.83 500.11,508.72 496.72,498.88 C496.21,497.39 495.76,497.39 491.33,498.97 C480.37,502.88 476.10,504.18 473.13,504.51 C471.68,504.68 468.02,505.32 465.00,505.95 C461.98,506.58 458.26,507.35 456.74,507.67 C452.46,508.54 452.28,511.60 456.11,521.87 C456.07,521.77 456.03,521.67 455.99,521.57 C449.40,504.78 447.62,495.21 447.63,476.50 C447.64,464.25 448.06,459.85 449.91,452.51 C454.38,434.74 462.74,417.02 470.75,408.32 C472.68,406.22 475.29,402.92 476.55,401.00 C481.36,393.62 495.15,381.00 498.40,381.00 C499.24,381.00 500.47,379.99 501.13,378.75 C502.72,375.76 505.04,374.07 507.59,374.03 C508.82,374.01 510.14,372.99 510.80,371.54 C512.23,368.41 524.69,362.32 536.50,358.98 C538.15,358.52 541.38,357.44 543.69,356.59 C552.01,353.53 562.49,352.00 575.18,352.00 C582.16,352.00 589.14,352.49 590.68,353.08 C592.23,353.68 596.41,354.36 599.97,354.59 C608.29,355.14 620.46,358.56 624.95,361.61 C626.88,362.93 629.04,364.00 629.75,364.00 C633.17,364.00 649.89,373.57 654.75,378.31 C657.64,381.13 660.00,383.78 660.00,384.22 C660.00,385.44 656.21,385.14 655.80,383.89 C655.52,383.07 653.96,383.06 649.96,383.87 C644.63,384.94 625.87,384.65 623.95,383.47 C622.54,382.60 615.76,385.08 613.84,387.19 C612.93,388.18 611.43,389.00 610.52,389.00 C607.23,389.00 605.00,391.01 605.00,393.98 C605.00,395.57 604.64,397.10 604.21,397.37 C603.77,397.64 600.73,396.77 597.46,395.44 C593.36,393.77 589.47,392.99 585.00,392.95 C581.42,392.92 575.48,392.56 571.79,392.15 C568.09,391.74 565.30,391.63 565.58,391.92 C566.20,392.54 554.34,395.98 551.50,396.01 C548.28,396.04 532.46,403.49 529.35,406.43 C527.78,407.92 525.32,409.76 523.87,410.53 C522.43,411.30 518.43,414.98 515.00,418.71 C508.23,426.06 502.31,437.32 497.32,452.35 C494.86,459.76 494.60,461.91 494.55,476.00 C494.50,490.36 494.71,492.13 497.30,500.04 C500.14,508.71 505.00,517.86 510.13,524.83 ZM 155.04 862.79 C164.92,867.68 180.13,864.82 189.35,856.35 C204.02,842.87 300.09,747.48 302.50,744.00 C304.77,740.72 305.39,738.56 305.77,732.61 L 306.25 725.26 C315.61,735.01 324.91,745.04 328.62,749.61 C328.50,749.54 328.39,749.50 328.30,749.50 C327.64,749.50 297.94,778.56 262.30,814.08 C201.84,874.33 192.93,882.68 185.75,885.77 C181.11,887.77 170.14,890.00 164.94,890.00 C162.22,890.00 160.00,890.37 160.00,890.83 C160.00,891.50 163.17,893.20 166.79,894.69 C161.48,892.60 156.00,889.78 156.00,888.88 C156.00,888.40 155.41,888.00 154.70,888.00 C153.98,888.00 151.87,886.42 150.00,884.50 C148.13,882.58 147.01,881.00 147.49,881.00 C147.98,881.00 147.65,880.44 146.74,879.75 C144.53,878.06 140.34,869.43 139.08,863.96 C136.47,852.66 139.27,838.18 145.87,828.78 C147.11,827.01 163.89,809.66 186.58,786.60 C163.80,809.79 146.86,827.43 145.46,829.50 C143.61,832.25 141.54,836.59 140.87,839.14 C139.81,843.16 139.89,844.42 141.46,848.52 C143.62,854.19 148.93,859.77 155.04,862.79 ZM 667.60 454.84 C668.09,454.04 667.61,453.87 666.02,454.29 C663.95,454.83 664.05,454.55 667.01,451.49 C668.82,449.63 670.57,448.13 670.90,448.17 C673.15,448.43 673.79,447.60 673.70,444.54 L 673.61 441.08 L 671.55 444.24 C670.89,445.26 669.67,446.82 668.32,448.42 C672.64,442.50 676.09,434.52 676.69,428.76 C676.96,426.08 676.88,423.35 676.49,420.63 C677.28,425.57 676.99,429.59 675.66,434.74 C674.92,437.59 674.69,439.69 675.16,439.40 C675.62,439.12 676.00,438.23 676.00,437.44 C676.00,435.57 676.99,435.61 678.39,437.52 C679.61,439.19 679.60,435.89 678.36,426.60 C677.93,423.35 678.05,421.91 678.73,422.33 C679.87,423.04 681.00,418.60 681.00,413.43 C681.00,403.07 687.89,412.74 697.51,436.60 C703.86,452.34 705.43,460.70 705.41,478.50 C705.39,495.67 703.67,505.65 698.28,520.00 C696.74,524.08 694.83,528.33 692.63,532.60 C693.79,530.02 693.82,528.93 693.16,527.88 C692.52,526.86 692.00,524.32 692.00,522.24 C692.00,518.87 691.58,518.24 688.25,516.53 C686.19,515.48 683.12,513.34 681.43,511.78 C679.74,510.23 677.30,508.75 676.00,508.50 C674.70,508.25 671.95,506.69 669.88,505.02 C667.81,503.36 665.42,502.00 664.56,502.00 C663.70,502.00 663.00,501.55 663.00,501.00 C663.00,500.45 662.33,500.00 661.50,500.00 C660.67,500.00 660.00,499.55 660.00,499.00 C660.00,497.29 656.97,497.91 656.33,499.75 C655.16,503.12 653.84,506.36 652.37,509.47 C654.12,505.62 655.55,501.62 656.63,497.50 C658.46,490.55 659.18,472.11 658.00,462.36 L 657.50 458.23 L 652.73 460.11 C646.77,462.46 641.05,463.21 635.13,462.40 C644.88,463.33 655.99,459.98 663.30,453.87 L 661.26 456.00 L 664.07 456.00 C665.62,456.00 667.20,455.48 667.60,454.84 ZM 666.97 397.95 C665.81,396.33 665.30,395.00 665.84,395.00 C666.87,395.00 666.83,392.49 665.78,391.45 C665.45,391.11 664.28,391.31 663.19,391.90 C661.68,392.71 660.92,392.61 659.98,391.48 C659.31,390.67 659.15,389.96 659.63,389.92 C660.11,389.87 661.72,389.63 663.22,389.39 C665.38,389.03 666.78,389.78 670.03,393.03 C674.41,397.41 674.66,398.84 671.23,400.11 C669.50,400.75 668.66,400.33 666.97,397.95 ZM 299.76 517.26 C298.47,516.27 297.11,515.18 295.80,514.12 C291.79,510.87 287.91,508.55 286.13,508.36 C283.31,508.05 283.19,508.18 283.96,510.77 C284.08,511.19 284.28,511.81 284.55,512.57 C283.72,510.47 283.03,508.80 282.47,507.50 C281.74,505.85 280.83,503.15 280.43,501.50 C279.80,498.88 280.98,499.73 289.66,508.12 C293.11,511.45 296.88,514.85 299.76,517.26 ZM 868.10 513.20 C868.82,510.74 869.33,508.53 869.42,507.25 L 869.74 503.01 L 865.12 507.04 C863.29,508.63 859.93,511.42 856.63,514.09 C859.31,511.75 862.28,509.04 864.75,506.64 C869.29,502.24 873.00,498.84 873.00,499.07 C872.99,499.50 871.01,505.17 868.10,513.20 ZM 675.75 405.25 C675.50,403.74 674.95,401.71 674.53,400.75 C673.39,398.07 675.55,398.66 677.44,401.55 C678.39,402.99 678.84,404.93 678.49,406.05 C677.60,408.84 676.31,408.46 675.75,405.25 ZM 484.26 566.32 C501.23,583.56 523.25,595.85 548.57,601.78 C539.49,599.66 530.53,596.73 523.48,593.52 C508.23,586.58 495.18,577.53 484.26,566.32 ZM 675.56 416.17 C672.11,403.44 662.11,391.83 650.18,388.36 C649.63,388.20 649.06,388.06 648.48,387.93 C650.68,388.25 652.28,388.78 654.18,389.66 C663.98,394.19 672.63,404.77 675.42,415.64 C675.47,415.82 675.51,416.00 675.56,416.17 ZM 655.95 577.97 C662.30,573.02 668.20,567.46 673.57,561.33 C670.87,564.54 668.13,567.50 665.40,570.11 C662.82,572.58 659.56,575.27 655.95,577.97 ZM 298.28 796.00 C288.62,805.78 277.35,817.10 265.33,829.08 C218.25,875.97 205.88,888.11 199.83,892.35 C205.89,888.10 218.29,875.91 265.66,828.69 C278.56,815.83 289.39,804.98 298.28,796.00 ZM 816.90 622.57 C804.06,640.68 789.24,658.03 774.77,671.37 C788.52,658.69 803.83,640.86 816.90,622.57 ZM 611.15 600.37 C620.17,597.91 628.85,594.49 637.04,590.17 C635.14,591.22 633.29,592.18 631.50,593.04 C625.34,596.01 618.43,598.47 611.15,600.37 ZM 631.34 387.62 C627.87,388.18 624.69,389.09 622.29,390.32 C619.61,391.69 617.19,393.23 615.01,394.93 C617.18,393.22 619.61,391.66 622.29,390.25 C625.59,388.50 627.27,387.86 631.34,387.62 ZM 556.50 603.40 C560.90,604.18 569.67,604.86 576.00,604.91 C577.82,604.92 579.64,604.90 581.45,604.83 C572.74,605.22 564.22,604.77 556.50,603.40 ZM 330.44 762.07 C330.33,762.30 330.20,762.54 330.08,762.79 C329.69,763.54 325.65,767.90 318.98,774.82 C325.82,767.68 329.54,763.54 330.44,762.07 ZM 536.78 547.29 C533.48,545.70 530.79,544.60 530.26,544.65 C529.61,544.72 528.23,543.42 527.15,541.73 C528.35,543.30 529.66,544.49 530.26,544.51 C530.79,544.52 533.48,545.68 536.78,547.29 ZM 854.30 550.51 C854.84,549.06 855.40,547.56 855.97,546.00 C858.11,540.21 860.48,533.86 862.45,528.65 C859.76,535.93 856.90,543.62 854.30,550.51 ZM 640.09 528.68 C634.89,534.80 628.84,540.09 621.98,544.50 C628.79,540.08 634.89,534.73 640.09,528.68 ZM 612.91 452.14 C606.08,445.87 601.97,437.28 601.27,427.15 C601.96,437.17 606.10,445.81 612.91,452.14 ZM 843.28 578.11 C845.24,573.77 847.23,568.98 849.46,563.26 C848.04,566.94 846.91,569.83 846.21,571.50 C845.31,573.66 844.33,575.87 843.28,578.11 ZM 283.93 703.07 C282.36,701.86 281.05,701.10 279.79,700.63 C280.55,700.85 281.26,701.12 281.80,701.40 C282.19,701.60 282.92,702.18 283.93,703.07 ZM 608.53 551.66 C604.74,553.32 601.19,554.56 597.53,555.45 C597.85,555.37 598.17,555.28 598.50,555.19 C601.94,554.21 605.28,553.03 608.53,551.66 ZM 329.95 751.37 C330.07,751.56 330.17,751.72 330.22,751.84 C331.34,754.21 331.89,755.81 331.86,757.40 C331.83,756.41 331.51,755.33 330.94,753.67 C330.65,752.82 330.30,752.03 329.95,751.37 ZM 183.70 897.46 C187.96,897.07 192.38,896.04 196.07,894.46 C192.24,896.10 187.93,897.12 183.70,897.46 ZM 306.98 523.09 C307.98,524.29 308.74,525.72 309.45,527.62 C308.83,525.97 307.92,524.34 306.98,523.09 ZM 300.60 556.50 C296.75,545.66 293.57,536.81 290.97,529.67 C293.14,535.59 296.05,543.69 300.60,556.50 ZM 524.86 538.90 C523.63,537.64 522.15,536.38 520.83,535.51 C520.61,535.36 520.40,535.21 520.18,535.06 C520.24,535.10 520.29,535.13 520.35,535.17 C521.76,536.02 523.48,537.46 524.86,538.90 ZM 848.17 521.00 C846.79,522.28 845.80,523.45 844.84,524.98 C845.86,523.33 846.85,522.18 848.17,521.00 ZM 305.73 724.72 L 303.10 722.00 C303.97,722.90 304.85,723.81 305.73,724.72 Z" fill="rgb(38,62,101)" data-index="1"></path>
<path d="M 553.50 749.38 C529.28,746.86 501.73,741.19 481.91,734.63 C470.78,730.96 448.05,720.99 436.00,714.51 C393.72,691.77 355.66,656.25 329.36,615.00 C315.94,593.96 308.60,579.02 300.60,556.50 C296.75,545.66 293.57,536.81 290.97,529.68 L 290.97 529.67 C288.24,522.20 286.14,516.60 284.55,512.57 C284.28,511.81 284.08,511.19 283.96,510.77 C283.19,508.18 283.31,508.05 286.13,508.36 C287.91,508.55 291.79,510.87 295.80,514.12 C297.11,515.18 298.47,516.27 299.76,517.26 C301.44,518.68 302.82,519.75 303.64,520.27 C305.03,521.15 306.10,522.03 306.98,523.09 C307.92,524.34 308.83,525.97 309.45,527.62 L 309.46 527.65 C315.32,543.34 328.81,568.69 341.08,587.06 C354.67,607.42 380.56,635.02 402.00,652.03 C432.43,676.16 471.23,695.76 506.50,704.81 C533.37,711.70 550.67,714.09 574.00,714.10 C686.66,714.18 792.00,642.91 840.55,533.74 C842.41,529.56 843.64,526.92 844.84,524.98 C845.80,523.45 846.79,522.28 848.17,521.00 C848.95,520.32 849.84,519.62 850.92,518.81 C852.32,517.77 854.37,516.06 856.63,514.09 C859.93,511.42 863.29,508.63 865.12,507.04 L 869.74 503.01 L 869.42 507.25 C869.33,508.53 868.82,510.74 868.10,513.20 C866.44,517.77 864.50,523.09 862.45,528.65 C860.48,533.86 858.11,540.21 855.97,546.00 C855.40,547.56 854.84,549.06 854.30,550.51 L 854.30 550.51 C852.52,555.27 850.85,559.65 849.46,563.26 C847.23,568.98 845.24,573.77 843.28,578.11 C836.70,592.23 827.47,607.66 816.90,622.57 C803.83,640.86 788.52,658.69 774.77,671.37 C731.04,711.68 675.97,738.10 617.00,747.08 C603.98,749.06 564.26,750.50 553.50,749.38 ZM 556.50 603.40 C553.88,602.94 551.22,602.39 548.57,601.78 C523.26,595.85 501.23,583.56 484.26,566.32 L 484.26 566.32 C472.35,554.09 462.99,539.29 456.11,521.87 C452.28,511.60 452.46,508.54 456.74,507.67 C458.26,507.35 461.98,506.58 465.00,505.95 C468.02,505.32 471.68,504.68 473.13,504.51 C476.10,504.18 480.37,502.88 491.33,498.97 C495.76,497.39 496.21,497.39 496.72,498.88 C500.11,508.72 504.89,517.83 510.13,524.83 C513.53,529.44 517.04,533.11 520.18,535.06 C520.40,535.21 520.61,535.36 520.83,535.51 C522.15,536.38 523.63,537.64 524.86,538.90 C524.96,539.01 525.07,539.12 525.17,539.23 C519.97,533.74 511.26,531.44 504.32,534.06 C500.50,535.50 495.06,540.80 493.38,544.72 C489.30,554.22 494.64,565.97 504.66,569.54 C509.32,571.20 511.44,571.29 516.00,570.00 C519.85,568.91 528.31,562.65 527.30,561.64 C526.95,561.29 527.10,561.00 527.62,561.00 C528.66,561.00 528.77,560.37 529.34,551.50 C529.67,546.36 529.40,545.08 527.10,541.67 C527.11,541.69 527.13,541.71 527.15,541.73 C528.23,543.42 529.61,544.72 530.26,544.65 C530.79,544.60 533.48,545.70 536.77,547.29 L 536.78 547.29 C537.71,547.74 538.69,548.23 539.68,548.74 C552.35,555.26 561.95,557.47 577.50,557.46 C587.46,557.46 591.62,557.06 597.53,555.45 C601.19,554.56 604.74,553.32 608.53,551.66 C613.25,549.66 617.75,547.26 621.98,544.50 C628.84,540.09 634.89,534.80 640.09,528.68 C645.08,522.87 649.24,516.41 652.37,509.47 C653.84,506.36 655.16,503.12 656.33,499.75 C656.97,497.91 660.00,497.29 660.00,499.00 C660.00,499.55 660.67,500.00 661.50,500.00 C662.33,500.00 663.00,500.45 663.00,501.00 C663.00,501.55 663.70,502.00 664.56,502.00 C665.42,502.00 667.81,503.36 669.88,505.02 C671.95,506.69 674.70,508.25 676.00,508.50 C677.30,508.75 679.74,510.23 681.43,511.78 C683.12,513.34 686.19,515.48 688.25,516.53 C691.58,518.24 692.00,518.87 692.00,522.24 C692.00,524.32 692.52,526.86 693.16,527.88 C693.82,528.93 693.79,530.02 692.63,532.60 C687.45,542.65 680.69,552.85 673.57,561.33 C668.20,567.46 662.30,573.02 655.95,577.97 C650.13,582.32 643.38,586.68 637.04,590.17 C628.85,594.49 620.17,597.91 611.15,600.37 C601.58,602.86 591.39,604.39 581.45,604.83 C579.64,604.90 577.82,604.92 576.00,604.91 C569.67,604.86 560.90,604.18 556.50,603.40 ZM 155.04 862.79 C148.93,859.77 143.62,854.19 141.46,848.52 C139.89,844.42 139.81,843.16 140.87,839.14 C141.54,836.59 143.61,832.25 145.46,829.50 C146.86,827.43 163.79,809.80 186.57,786.61 L 186.58 786.60 C194.08,778.97 202.24,770.72 210.69,762.20 C267.93,704.51 272.74,699.91 275.80,699.95 C276.95,699.97 278.46,700.24 279.79,700.63 C281.05,701.10 282.36,701.86 283.93,703.07 C287.67,706.36 295.18,713.84 303.10,722.00 L 305.73 724.72 C305.90,724.90 306.07,725.08 306.25,725.26 L 305.77 732.61 C305.39,738.56 304.77,740.72 302.50,744.00 C300.09,747.48 204.02,842.87 189.35,856.35 C180.13,864.82 164.92,867.68 155.04,862.79 ZM 420.00 303.00 C427.14,296.36 442.01,285.65 455.10,277.73 C482.42,261.20 515.55,249.65 547.46,245.54 C563.09,243.53 592.05,243.54 607.54,245.56 C642.52,250.13 677.65,263.50 708.38,283.92 C721.25,292.47 738.47,305.86 737.65,306.68 C737.46,306.87 731.41,304.11 724.22,300.53 C706.11,291.54 701.85,289.71 683.00,282.86 C600.24,252.77 511.65,259.06 429.50,300.86 C422.35,304.50 416.05,307.62 415.50,307.80 C414.95,307.97 416.98,305.81 420.00,303.00 ZM 172.50 896.63 C170.83,896.19 168.82,895.50 166.79,894.69 C163.17,893.20 160.00,891.50 160.00,890.83 C160.00,890.37 162.22,890.00 164.94,890.00 C170.14,890.00 181.11,887.77 185.75,885.77 C192.93,882.68 201.84,874.33 262.30,814.08 C297.94,778.56 327.64,749.50 328.30,749.50 C328.39,749.50 328.50,749.54 328.62,749.61 C329.21,750.35 329.66,750.94 329.95,751.37 C330.30,752.03 330.65,752.82 330.94,753.67 C331.51,755.33 331.83,756.41 331.86,757.40 C331.84,758.81 331.37,760.19 330.44,762.07 C329.54,763.54 325.82,767.68 318.98,774.82 C313.61,780.40 306.53,787.64 298.28,796.00 C289.39,804.98 278.56,815.83 265.66,828.69 C218.29,875.91 205.89,888.10 199.83,892.35 C198.43,893.33 197.37,893.89 196.30,894.36 C196.23,894.39 196.15,894.43 196.07,894.46 C192.38,896.04 187.96,897.07 183.70,897.46 L 183.70 897.46 C179.75,897.79 175.87,897.52 172.50,896.63 ZM 181.30 822.42 C181.28,822.45 181.27,822.46 181.28,822.46 C181.38,822.57 203.06,801.13 230.30,773.98 L 232.28 772.01 C275.51,728.93 282.44,722.02 281.04,718.14 C280.74,717.33 280.10,716.66 279.35,715.83 C275.59,711.68 273.51,713.06 254.52,732.25 C208.20,779.06 176.11,812.37 176.59,813.15 C176.88,813.62 176.51,814.00 175.76,814.00 C175.02,814.00 172.63,815.91 170.45,818.24 C168.17,820.70 167.79,821.33 169.55,819.74 C173.35,816.33 175.17,816.13 172.04,819.46 L 169.73 821.92 L 172.21 821.47 C173.57,821.22 176.02,820.87 177.64,820.69 C179.26,820.52 181.13,820.04 181.80,819.63 C183.53,818.55 183.28,820.00 181.30,822.42 ZM 322.53 710.95 L 306.63 695.01 L 312.51 700.49 C316.36,704.06 319.70,706.99 319.95,706.99 C320.20,707.00 319.86,706.46 319.20,705.80 C317.43,704.03 317.65,703.39 321.58,699.04 C323.55,696.86 325.26,694.40 325.38,693.58 C325.74,691.16 329.01,688.15 332.56,686.98 C335.05,686.16 336.66,684.50 339.02,680.31 L 342.16 674.74 L 346.80 679.12 C351.14,683.21 351.08,683.10 345.97,677.43 C343.21,674.37 339.90,670.52 338.24,668.44 L 351.81 682.13 L 368.96 699.42 L 366.73 701.95 C362.35,706.92 340.86,728.00 340.19,727.98 C339.81,727.97 331.86,720.31 322.53,710.95 ZM 305.56 693.94 L 320.11 679.39 L 334.67 664.84 L 334.74 664.92 L 320.34 679.24 Z" fill="rgb(93,113,139)" data-index="2" style="opacity: 1;"></path>

</g>
</svg>